<?xml version="1.0" encoding="UTF-8"?>
<svg id="Ebene_1" xmlns="http://www.w3.org/2000/svg" version="1.1" viewBox="0 0 895 717">
  <!-- Generator: Adobe Illustrator 29.4.0, SVG Export Plug-In . SVG Version: 2.1.0 Build 152)  -->
  <defs>
    <style>
      .st0 {
        fill: #f98514;
      }

      .st1 {
        fill: #fba70b;
      }

      .st2 {
        fill: #f88b15;
      }

      .st3 {
        fill: #f9761a;
      }

      .st4 {
        fill: #f50053;
      }

      .st5 {
        fill: #ea0051;
      }

      .st6 {
        fill: #fb6723;
      }

      .st7 {
        fill: #ffa810;
      }

      .st8 {
        fill: #40ced3;
      }

      .st9 {
        fill: #d5cb2a;
      }

      .st10 {
        fill: #f90078;
      }

      .st11 {
        fill: #eb0152;
      }
    </style>
  </defs>
  <polygon class="st7" points="646.63 317.67 622.04 278.33 272.96 278.33 248.37 317.67 646.63 317.67"/>
  <polygon class="st3" points="611.21 261 586 220.67 309 220.67 283.79 261 611.21 261"/>
  <polygon class="st1" points="682.05 374.33 657.46 335 237.54 335 212.95 374.33 682.05 374.33"/>
  <polygon class="st6" points="575.17 203.33 550.58 164 344.42 164 319.83 203.33 575.17 203.33"/>
  <polygon class="st4" points="539.75 146.67 515.16 107.33 379.84 107.33 355.25 146.67 539.75 146.67"/>
  <polygon class="st5" points="504.33 90 486.37 61.27 479.74 50.67 415.26 50.67 408.31 61.78 390.86 89.7 390.67 90 504.33 90"/>
  <polygon class="st2" points="753.51 488.67 730.18 451.33 164.82 451.33 141.49 488.67 753.51 488.67"/>
  <path class="st11" d="M468.91,33.33l-17.06-27.3c-2.01-3.21-6.68-3.21-8.69,0l-17.06,27.3h42.82Z"/>
  <path class="st10" d="M889.46,706.16l-16.98-27.16H22.52l-16.98,27.16c-2.13,3.41.32,7.84,4.34,7.84h875.23c4.02,0,6.48-4.43,4.34-7.84Z"/>
  <polygon class="st8" points="861.65 661.67 836.44 621.33 58.56 621.33 33.35 661.67 861.65 661.67"/>
  <polygon class="st0" points="719.34 434 692.88 391.67 202.12 391.67 175.66 434 719.34 434"/>
  <polygon class="st9" points="789.56 546.33 764.35 506 130.65 506 105.44 546.33 789.56 546.33"/>
  <polygon class="st8" points="825.6 604 800.39 563.67 94.61 563.67 69.4 604 825.6 604"/>
</svg>